<?xml version="1.0" standalone="no"?>
<!DOCTYPE svg PUBLIC "-//W3C//DTD SVG 20010904//EN"
 "http://www.w3.org/TR/2001/REC-SVG-20010904/DTD/svg10.dtd">
<svg version="1.0" xmlns="http://www.w3.org/2000/svg"
 width="626.000000pt" height="626.000000pt" viewBox="0 0 626.000000 626.000000"
 preserveAspectRatio="xMidYMid meet">

<g transform="translate(0.000000,626.000000) scale(0.100000,-0.100000)"
fill="#000000" stroke="none">
<path d="M3531 5904 c-185 -55 -335 -168 -379 -287 -41 -110 -22 -232 52 -324
l34 -43 27 87 c31 100 80 202 137 286 21 31 36 62 33 67 -4 6 -2 9 3 8 5 -2
49 39 97 90 95 100 151 130 66 35 -28 -32 -49 -63 -47 -70 3 -7 1 -12 -5 -10
-24 5 -148 -250 -134 -274 5 -8 4 -10 -3 -5 -7 4 -12 5 -12 2 0 -3 -11 -43
-24 -88 -37 -133 -38 -138 -22 -138 28 0 126 41 121 51 -4 5 0 6 8 3 26 -9
100 58 129 116 31 64 53 196 63 393 l7 127 -33 -1 c-19 0 -72 -11 -118 -25z
m39 -537 c0 -2 -10 -12 -22 -23 l-23 -19 19 23 c18 21 26 27 26 19z"/>
<path d="M2600 5667 c0 -170 27 -346 51 -332 5 4 6 0 3 -8 -10 -27 88 -96 172
-121 20 -6 20 -4 11 48 -6 31 -14 53 -18 50 -5 -3 -6 2 -3 10 13 34 -86 283
-107 270 -8 -4 -9 -3 -5 4 9 14 -12 55 -24 47 -5 -3 -12 0 -16 6 -4 8 -3 9 4
5 19 -12 14 3 -14 40 -48 62 -6 35 55 -36 70 -81 126 -166 154 -232 11 -26 23
-45 28 -42 5 3 7 -1 4 -8 -6 -17 27 -142 39 -148 16 -9 74 88 87 144 10 46 9
62 -8 117 -10 35 -24 64 -30 64 -6 0 -15 4 -20 9 -5 5 -3 6 5 2 31 -18 7 17
-45 65 -64 58 -168 111 -262 133 l-61 14 0 -101z m111 -384 c13 -16 12 -17 -3
-4 -10 7 -18 15 -18 17 0 8 8 3 21 -13z"/>
<path d="M1552 5458 c-93 -244 -135 -572 -101 -789 60 -390 333 -642 792 -734
185 -37 507 -61 467 -35 -8 5 -24 7 -35 4 -15 -4 -17 -3 -6 4 11 8 7 14 -20
27 -19 10 -71 42 -115 71 -96 63 -114 71 -204 85 -80 12 -156 1 -228 -33 -26
-12 -51 -24 -57 -26 -5 -3 2 9 18 25 15 16 25 32 21 35 -3 3 1 6 8 5 7 -1 35
10 63 22 33 16 69 24 111 25 34 0 61 2 61 2 -1 1 -38 31 -81 67 -44 36 -84 63
-89 60 -6 -3 -7 -1 -3 5 9 14 -39 44 -114 73 -74 28 -179 29 -240 2 -25 -11
-61 -38 -81 -60 -48 -53 -54 -56 -70 -35 -13 15 -12 16 3 3 15 -11 19 -11 24
2 3 9 3 21 -1 27 -4 6 -2 9 4 8 5 -2 21 13 36 32 33 44 97 88 142 96 19 4 63
4 97 2 l62 -5 -39 43 c-22 24 -44 41 -50 37 -5 -3 -7 -2 -4 4 8 12 -51 85 -63
78 -5 -3 -12 0 -16 6 -5 8 -3 9 6 4 8 -5 11 -3 8 6 -2 8 -26 25 -53 39 -42 21
-64 25 -136 25 -77 0 -90 -3 -127 -28 -57 -37 -53 -17 4 28 57 42 111 59 181
53 48 -4 51 -3 42 14 -6 10 -14 16 -18 13 -5 -2 -8 1 -7 8 2 23 -74 158 -86
151 -7 -4 -8 -3 -4 4 4 7 -9 52 -29 101 -36 90 -67 199 -79 279 -11 76 9 44
31 -51 24 -97 138 -342 160 -342 6 0 15 -4 20 -9 5 -5 3 -6 -4 -2 -7 4 -13 4
-13 0 0 -8 40 -74 45 -74 2 0 3 30 2 68 -1 68 20 172 35 172 4 0 5 -29 1 -64
-6 -71 9 -172 39 -254 15 -41 42 -76 125 -160 57 -59 102 -98 98 -87 -3 11
-11 54 -17 96 -12 86 3 186 42 272 26 58 45 63 23 5 -12 -31 -17 -78 -17 -163
-1 -109 2 -128 29 -205 24 -69 39 -94 78 -132 46 -46 85 -67 56 -31 -12 14
-10 14 14 -1 31 -21 35 -28 10 -19 -11 4 -14 3 -9 -5 8 -13 190 -142 200 -142
4 0 0 12 -7 28 -57 110 -70 308 -29 439 12 40 28 75 34 79 8 5 9 0 5 -17 -4
-13 -12 -55 -19 -93 -20 -122 15 -292 93 -447 27 -54 34 -60 136 -117 162 -91
147 -97 140 54 -9 216 -65 371 -190 529 -67 85 -189 191 -207 180 -6 -4 -9 -1
-8 6 2 6 -3 14 -11 17 -9 3 -11 0 -6 -8 5 -9 4 -11 -4 -6 -6 4 -9 11 -6 16 7
11 -84 61 -235 131 -136 63 -289 151 -368 213 -72 55 -164 151 -186 194 -9 18
-20 31 -24 28 -4 -2 -8 6 -9 17 -1 12 -6 42 -10 67 l-9 45 -22 -57z m158 -223
c13 -14 21 -25 18 -25 -2 0 -15 11 -28 25 -13 14 -21 25 -18 25 2 0 15 -11 28
-25z m870 -550 c13 -14 21 -25 18 -25 -2 0 -15 11 -28 25 -13 14 -21 25 -18
25 2 0 15 -11 28 -25z m-599 -82 c13 -16 12 -17 -3 -4 -10 7 -18 15 -18 17 0
8 8 3 21 -13z m-26 -133 c10 -11 16 -20 13 -20 -3 0 -13 9 -23 20 -10 11 -16
20 -13 20 3 0 13 -9 23 -20z m516 -277 c13 -16 12 -17 -3 -4 -10 7 -18 15 -18
17 0 8 8 3 21 -13z m160 -100 c13 -16 12 -17 -3 -4 -17 13 -22 21 -14 21 2 0
10 -8 17 -17z"/>
<path d="M4676 5470 c-4 -25 -8 -55 -9 -67 -1 -11 -5 -19 -9 -17 -3 2 -17 -15
-31 -38 -14 -24 -55 -72 -91 -107 -36 -36 -63 -68 -60 -72 2 -4 -1 -11 -7 -15
-8 -4 -9 -3 -5 4 13 21 -4 13 -71 -35 -36 -26 -124 -77 -195 -113 -70 -37
-125 -70 -121 -74 4 -4 -1 -4 -11 0 -13 5 -17 4 -12 -4 4 -8 2 -10 -7 -6 -19
7 -120 -44 -224 -112 -98 -65 -237 -199 -229 -220 3 -8 1 -12 -4 -9 -23 14
-117 -168 -151 -295 -22 -80 -39 -330 -23 -330 5 0 61 29 124 64 130 71 142
87 199 241 53 146 62 291 27 410 -12 40 -12 44 0 34 22 -18 54 -136 61 -219 6
-85 -14 -208 -47 -285 l-19 -45 22 11 c54 29 107 71 101 81 -4 7 -2 8 4 4 7
-4 47 19 92 54 60 46 87 74 106 112 14 27 23 57 20 65 -3 8 -2 12 3 9 34 -21
49 279 18 362 -22 58 -3 53 23 -5 39 -86 54 -186 42 -272 -6 -42 -14 -85 -18
-96 -7 -18 -6 -18 9 -6 9 7 14 18 10 24 -3 5 -2 7 4 4 13 -8 135 116 131 134
-2 8 2 13 9 12 20 -4 52 47 76 121 17 55 22 95 22 179 0 100 1 106 13 76 20
-49 32 -138 26 -181 -4 -21 -4 -38 -2 -38 11 0 79 121 73 130 -4 6 -1 9 7 8 7
-2 12 5 12 14 -1 10 2 16 6 13 13 -8 91 174 115 267 26 106 42 103 20 -3 -9
-40 -13 -79 -10 -87 2 -7 0 -10 -5 -7 -6 3 -10 1 -10 -5 0 -44 -119 -302 -186
-405 -14 -21 -13 -21 46 -17 41 3 73 -1 102 -13 40 -16 123 -74 115 -81 -1 -2
-25 8 -52 21 -88 45 -228 28 -296 -36 -18 -17 -28 -33 -23 -40 4 -7 3 -9 -4
-5 -6 3 -17 -3 -24 -13 -8 -11 -37 -44 -64 -74 l-50 -54 73 5 c88 6 144 -12
196 -63 41 -40 89 -122 76 -130 -5 -4 -13 4 -18 17 -10 26 -65 80 -98 97 -51
26 -129 32 -198 16 -90 -20 -132 -44 -239 -133 -50 -41 -94 -78 -98 -81 -4 -3
21 -6 56 -6 73 -1 154 -35 201 -86 17 -17 26 -30 20 -27 -5 2 -31 14 -57 26
-95 45 -193 50 -302 15 -54 -17 -141 -68 -141 -83 0 -4 -4 -12 -9 -17 -5 -5
-6 -2 -1 6 5 9 3 12 -6 9 -8 -3 -13 -11 -11 -17 1 -7 -2 -10 -7 -7 -5 4 -40
-12 -78 -35 l-68 -40 145 6 c532 23 895 203 1049 519 71 147 86 223 86 441 0
142 -5 213 -18 280 -22 108 -68 273 -95 335 l-19 45 -7 -45z m-116 -234 c0 -2
-8 -10 -17 -17 -16 -13 -17 -12 -4 4 13 16 21 21 21 13z m-870 -549 c0 -2 -12
-14 -27 -28 l-28 -24 24 28 c23 25 31 32 31 24z m570 -110 c0 -2 -15 -16 -32
-33 l-33 -29 29 33 c28 30 36 37 36 29z m-120 -281 c0 -2 -8 -10 -17 -17 -16
-13 -17 -12 -4 4 13 16 21 21 21 13z m-330 -90 c0 -2 -8 -10 -17 -17 -16 -13
-17 -12 -4 4 13 16 21 21 21 13z m700 -40 c0 -2 -8 -10 -17 -17 -16 -13 -17
-12 -4 4 13 16 21 21 21 13z"/>
<path d="M3811 5319 c-184 -31 -293 -156 -258 -295 7 -27 18 -48 25 -47 6 2 9
-4 6 -12 -11 -27 5 -16 21 15 9 17 13 35 10 41 -4 5 -2 8 3 7 6 -2 24 16 41
39 33 46 38 59 19 47 -9 -5 -9 -3 1 9 7 9 17 15 21 12 9 -5 77 64 70 72 -3 3
2 7 10 8 9 2 42 21 75 44 32 22 60 40 61 38 2 -1 -33 -40 -77 -86 -49 -50 -78
-88 -75 -97 3 -7 0 -13 -6 -11 -14 2 -106 -168 -96 -178 11 -11 108 14 146 37
44 27 84 110 117 244 14 54 25 105 25 112 0 14 -56 14 -139 1z m29 -133 c0 -2
-8 -10 -17 -17 -16 -13 -17 -12 -4 4 13 16 21 21 21 13z"/>
<path d="M2280 5300 c0 -13 52 -153 79 -213 14 -28 27 -45 33 -41 7 4 8 2 4
-5 -12 -19 23 -62 67 -81 23 -10 68 -22 100 -25 l59 -8 -17 32 c-8 17 -20 29
-25 26 -5 -3 -12 0 -16 6 -4 8 -3 9 4 5 24 -15 11 14 -33 72 -59 79 -163 175
-182 168 -8 -3 -11 -1 -8 4 3 6 -1 13 -9 16 -9 3 -16 10 -16 15 0 5 13 3 30
-6 35 -18 44 -19 34 -3 -5 7 -3 8 5 4 7 -5 10 -11 7 -14 -9 -8 54 -43 65 -36
5 3 8 1 7 -4 -2 -5 24 -32 57 -59 33 -28 83 -81 110 -118 l49 -67 12 33 c22
59 17 127 -12 176 -14 25 -30 41 -36 37 -7 -4 -8 -2 -4 4 10 17 -76 69 -135
81 -63 14 -229 14 -229 1z m315 -50 c3 -6 -1 -7 -9 -4 -18 7 -21 14 -7 14 6 0
13 -4 16 -10z"/>
<path d="M3063 5179 c-85 -16 -202 -86 -186 -111 3 -6 1 -8 -5 -4 -18 11 -72
-66 -92 -133 -11 -35 -20 -91 -20 -125 0 -66 26 -160 41 -150 5 3 6 -3 2 -12
-4 -12 -3 -15 5 -10 8 4 10 2 6 -7 -5 -15 90 -127 108 -127 5 0 6 5 2 12 -4 7
-3 8 5 4 6 -4 8 -12 5 -18 -5 -7 -1 -9 9 -5 10 4 16 2 14 -5 -4 -20 94 -49
168 -50 81 -1 159 17 149 34 -4 7 -3 8 5 4 29 -18 179 108 167 140 -3 7 0 13
7 11 6 -1 22 27 35 63 44 127 13 273 -79 375 -57 61 -124 98 -213 114 -67 12
-73 12 -133 0z m245 -91 c32 -20 33 -21 15 -42 -18 -21 -18 -21 3 -3 21 17 22
17 53 -19 18 -20 37 -47 43 -60 6 -13 14 -22 17 -20 3 2 7 -6 7 -17 1 -12 5
-43 9 -69 l8 -48 -70 0 c-62 0 -69 2 -70 21 -4 46 -26 90 -64 123 -21 20 -46
36 -54 36 -19 0 -19 9 1 77 15 52 17 54 42 48 15 -4 42 -16 60 -27z m73 -15
c13 -16 12 -17 -3 -4 -17 13 -22 21 -14 21 2 0 10 -8 17 -17z m-488 -376 c8
-18 31 -50 51 -72 33 -35 36 -41 25 -62 -7 -13 -15 -23 -19 -23 -3 0 -25 20
-49 44 -28 28 -42 50 -38 60 4 10 1 13 -7 10 -9 -3 -18 6 -24 25 -11 31 -10
32 45 50 2 1 9 -14 16 -32z m517 -120 c0 -2 -10 -12 -22 -23 l-23 -19 19 23
c18 21 26 27 26 19z"/>
<path d="M3310 4995 c19 -19 36 -35 39 -35 3 0 -10 16 -29 35 -19 19 -36 35
-39 35 -3 0 10 -16 29 -35z"/>
<path d="M3361 4930 c14 -31 19 -36 19 -24 0 6 -7 19 -16 30 -14 18 -14 18 -3
-6z"/>
<path d="M3381 4874 c0 -11 3 -14 6 -6 3 7 2 16 -1 19 -3 4 -6 -2 -5 -13z"/>
<path d="M3020 4080 c0 -213 4 -330 10 -330 6 0 10 112 10 315 0 284 4 339 23
308 3 -5 7 -144 8 -309 l4 -302 45 14 c25 8 46 14 48 14 1 0 2 128 2 284 0
157 4 287 8 290 5 3 21 7 37 10 21 4 25 2 17 -6 -9 -9 -12 -92 -12 -290 0
-242 2 -277 15 -272 13 5 15 49 15 305 l0 299 -32 -8 c-18 -4 -55 -7 -83 -7
-27 0 -65 3 -82 7 l-33 8 0 -330z"/>
<path d="M2023 3780 c-129 -65 -205 -207 -229 -429 l-7 -64 49 7 c110 16 253
48 324 72 85 29 122 59 155 124 22 43 50 149 41 157 -5 6 -130 -43 -199 -78
-90 -45 -179 -108 -171 -121 5 -7 2 -8 -5 -3 -15 9 -63 -33 -54 -48 4 -6 1 -7
-7 -2 -8 5 -24 -5 -46 -31 -57 -67 -37 -19 24 58 64 80 121 135 194 187 26 19
45 37 43 41 -3 4 1 7 8 7 6 -1 47 16 89 36 42 20 81 37 87 37 26 0 7 22 -41
46 -38 19 -73 28 -123 31 -63 4 -76 2 -132 -27z m-43 -44 c0 -2 -8 -10 -17
-17 -16 -13 -17 -12 -4 4 13 16 21 21 21 13z"/>
<path d="M3400 3784 c-271 -41 -558 -113 -544 -136 4 -7 2 -8 -5 -4 -15 9 -53
-3 -46 -15 3 -5 0 -6 -8 -3 -19 7 -165 -66 -242 -121 -109 -78 -257 -248 -239
-276 4 -8 3 -9 -4 -5 -14 8 -46 -50 -38 -70 3 -8 2 -12 -4 -9 -20 12 -52 -128
-57 -246 -6 -135 15 -240 69 -348 39 -78 96 -154 109 -146 5 3 6 0 3 -8 -6
-17 73 -90 88 -81 7 4 8 3 4 -4 -9 -15 61 -66 140 -103 81 -39 179 -59 292
-59 l92 0 0 29 c0 21 -6 30 -22 35 -22 6 -22 7 -5 20 23 18 22 44 -5 66 -21
17 -21 17 -2 28 16 8 19 19 16 56 -2 25 -8 46 -14 46 -5 0 -44 13 -86 29 -42
16 -98 37 -124 46 -26 10 -73 34 -105 55 -32 21 -61 36 -66 33 -4 -2 -6 1 -5
8 2 7 -4 13 -12 14 -8 0 -15 5 -15 10 0 19 -47 75 -57 69 -6 -4 -8 -2 -5 3 4
6 -5 36 -18 66 -60 130 -55 262 14 402 46 92 132 193 215 250 30 21 53 42 49
48 -3 6 -2 7 4 4 5 -3 50 14 99 39 211 106 530 176 786 173 142 -2 175 -16 40
-18 -211 -2 -412 -33 -597 -93 -114 -37 -341 -148 -338 -166 2 -6 -3 -9 -11
-6 -14 6 -150 -121 -181 -169 l-18 -28 41 -40 c48 -46 64 -48 86 -14 16 24 16
27 -12 63 -42 54 -49 85 -9 38 23 -27 38 -37 47 -31 9 5 11 4 6 -3 -10 -17 11
-15 39 4 l25 16 -25 32 c-26 34 -49 86 -37 86 4 0 17 -18 29 -39 27 -47 53
-58 87 -36 24 16 25 18 10 46 -8 16 -18 28 -22 25 -4 -2 -8 11 -9 30 -2 44 10
44 25 0 7 -19 23 -41 35 -49 21 -13 26 -13 46 2 l22 17 -20 44 c-22 49 -27 80
-11 80 6 0 10 -9 10 -21 0 -11 4 -18 9 -15 5 4 7 -2 4 -12 -2 -10 6 -27 20
-40 20 -19 28 -21 54 -11 30 10 31 11 17 37 -8 15 -14 33 -14 40 0 7 -4 11 -8
8 -5 -3 -6 8 -4 25 5 32 22 40 22 10 0 -28 11 -52 21 -45 5 3 6 -1 3 -9 -8
-22 20 -38 54 -31 l30 6 -14 40 c-16 47 -18 84 -4 93 6 4 10 -5 10 -20 0 -36
29 -95 47 -95 8 0 12 4 9 9 -3 4 6 6 20 3 22 -4 25 -2 21 14 -15 51 -17 82 -8
105 l10 24 0 -28 c1 -15 8 -44 16 -63 12 -30 19 -35 37 -30 13 3 26 6 31 6 4
0 7 29 7 64 0 36 5 68 10 71 6 4 10 -11 10 -39 0 -59 8 -76 34 -76 36 0 44 13
48 78 1 35 7 61 12 59 6 -2 9 -23 8 -48 -3 -60 7 -73 47 -62 31 8 33 12 36 57
4 67 23 82 22 17 0 -28 1 -52 4 -55 2 -2 20 -1 39 3 24 4 35 12 36 24 2 46 5
57 14 57 6 0 10 -18 10 -40 0 -38 2 -40 29 -40 24 0 31 5 36 29 3 16 13 36 22
43 14 11 15 10 9 -10 -19 -69 -21 -64 26 -76 21 -5 28 -2 33 14 9 29 24 24 22
-7 -2 -21 2 -28 15 -27 10 1 16 -2 15 -6 -3 -13 73 -61 85 -54 6 4 8 2 4 -4
-6 -10 105 -107 152 -131 18 -10 22 -9 22 3 0 25 -12 46 -23 39 -6 -3 -7 -1
-3 5 4 7 -2 33 -13 58 -25 56 -25 54 -5 54 9 0 12 5 8 13 -4 7 -3 9 2 4 5 -5
9 -12 9 -15 0 -4 12 -23 27 -43 15 -19 34 -54 42 -78 16 -45 46 -93 46 -74 0
7 -4 15 -10 18 -5 3 -20 38 -31 78 -22 70 -69 136 -109 149 -23 7 4 36 46 47
48 13 140 -17 136 -45 -2 -17 -2 -18 8 -2 12 20 44 12 36 -8 -7 -19 1 -17 23
5 19 19 19 20 -8 63 -57 90 -170 165 -306 203 -42 12 -112 18 -235 21 -149 3
-199 0 -340 -22z m215 6 c-3 -5 -13 -10 -21 -10 -8 0 -14 5 -14 10 0 6 9 10
21 10 11 0 17 -4 14 -10z m91 -1 c10 -17 -12 -32 -46 -32 -37 0 -47 8 -30 28
14 17 66 20 76 4z m129 -9 c0 -17 -43 -25 -64 -11 -22 14 -2 32 32 29 20 -2
32 -8 32 -18z m80 1 c3 -5 1 -12 -4 -15 -12 -8 -41 3 -41 15 0 12 37 12 45 0z
m-435 -21 c0 -5 -7 -10 -15 -10 -8 0 -15 5 -15 10 0 6 7 10 15 10 8 0 15 -4
15 -10z m90 -4 c0 -15 -21 -26 -51 -26 -22 0 -24 11 -7 28 17 17 58 15 58 -2z
m200 -2 c0 -8 -33 -34 -43 -34 -21 0 -40 17 -33 29 6 9 76 13 76 5z m-345 -27
c0 -19 -4 -22 -28 -19 -33 5 -31 24 4 33 13 4 24 7 24 8 0 1 0 -9 0 -22z m200
3 c-10 -11 -24 -20 -32 -20 -8 0 -11 -5 -7 -12 4 -6 3 -8 -4 -5 -19 12 -1 46
27 50 14 2 28 5 30 6 2 0 -4 -8 -14 -19z m-305 -25 c-7 -8 -16 -15 -21 -15 -5
0 -9 7 -9 15 0 9 9 15 21 15 18 0 19 -2 9 -15z m150 6 c0 -5 -7 -11 -15 -15
-9 -3 -15 0 -15 9 0 8 7 15 15 15 8 0 15 -4 15 -9z m210 -1 c0 -5 -7 -10 -15
-10 -8 0 -15 5 -15 10 0 6 7 10 15 10 8 0 15 -4 15 -10z m348 4 c12 -4 22 -13
22 -21 0 -8 5 -11 10 -8 14 9 52 -4 45 -16 -10 -16 -71 -10 -87 9 -35 41 -33
47 10 36z m-793 -14 c-3 -5 -15 -10 -26 -10 -11 0 -17 5 -14 10 3 6 15 10 26
10 11 0 17 -4 14 -10z m-139 -31 c7 -12 -12 -29 -33 -29 -28 0 -11 36 19 39 4
1 10 -4 14 -10z m-226 -49 c0 -5 -9 -10 -20 -10 -11 0 -20 5 -20 10 0 6 9 10
20 10 11 0 20 -4 20 -10z m100 0 c0 -11 -48 -25 -56 -17 -4 3 -3 10 1 16 8 14
55 14 55 1z m60 0 c0 -12 -28 -25 -36 -17 -9 9 6 27 22 27 8 0 14 -5 14 -10z
m1046 -20 c13 0 24 -5 24 -11 0 -8 -20 -9 -65 -4 l-65 7 0 -27 c0 -15 -4 -24
-10 -20 -12 7 -13 48 -2 59 4 4 27 5 51 2 24 -3 54 -6 67 -6z m-1326 -20 c0
-12 -28 -25 -36 -17 -9 9 6 27 22 27 8 0 14 -5 14 -10z m85 -1 c8 -12 -23 -38
-47 -39 -26 0 -33 21 -13 37 23 16 51 17 60 2z m1443 -24 c-3 -3 -9 2 -12 12
-6 14 -5 15 5 6 7 -7 10 -15 7 -18z m-1378 6 c0 -10 -30 -24 -37 -17 -3 3 -2
9 2 15 8 13 35 15 35 2z m-190 -35 c0 -18 -38 -46 -62 -46 -22 0 -23 23 -2 44
20 20 64 21 64 2z m-90 -11 c0 -17 -22 -29 -41 -23 -8 3 -6 9 5 21 22 21 36
22 36 2z m158 -7 c-5 -15 -48 -24 -48 -10 0 14 12 22 33 22 10 0 17 -5 15 -12z
m-238 -39 c-14 -11 -19 -18 -12 -14 7 4 27 11 44 15 30 9 30 9 24 -23 l-6 -32
21 28 c22 28 59 37 59 13 0 -20 -20 -33 -60 -39 -19 -3 -48 -10 -63 -16 -39
-15 -40 -15 -33 20 5 27 4 30 -9 19 -9 -7 -13 -15 -11 -18 10 -9 -13 -39 -33
-45 -17 -4 -18 -2 -9 17 10 21 93 96 106 96 4 0 -4 -10 -18 -21z m188 -11 c-3
-7 -13 -15 -24 -17 -16 -3 -17 -1 -5 13 16 19 34 21 29 4z m-106 -76 c4 -13
-1 -18 -18 -20 -26 -2 -31 7 -12 26 17 17 25 15 30 -6z m-157 -69 c-14 -13
-30 -21 -35 -18 -15 9 6 60 31 72 22 11 24 10 27 -9 3 -15 -5 -30 -23 -45z
m95 59 c0 -16 -32 -52 -46 -52 -17 0 -19 31 -2 48 13 13 48 16 48 4z m-137
-17 c-3 -9 -8 -14 -10 -11 -3 3 -2 9 2 15 9 16 15 13 8 -4z m-23 -65 c-6 -11
-15 -18 -20 -15 -13 8 0 35 16 35 12 0 12 -4 4 -20z m128 -2 c-6 -18 -28 -21
-28 -4 0 9 7 16 16 16 9 0 14 -5 12 -12z m26 3 c3 -5 -2 -15 -12 -22 -15 -12
-16 -12 -5 2 7 9 10 19 6 22 -3 4 -4 7 0 7 3 0 8 -4 11 -9z m-194 -15 c0 -2
-8 -10 -17 -17 -16 -13 -17 -12 -4 4 13 16 21 21 21 13z m110 -9 c0 -14 -20
-37 -32 -37 -12 0 -10 24 4 38 16 16 28 15 28 -1z m-60 -34 c0 -18 -28 -53
-42 -53 -12 0 -10 44 4 58 17 17 38 15 38 -5z m-70 -47 c0 -8 -4 -18 -10 -21
-5 -3 -10 3 -10 14 0 12 5 21 10 21 6 0 10 -6 10 -14z m56 -73 c-11 -11 -19 6
-11 24 8 17 8 17 12 0 3 -10 2 -21 -1 -24z m-48 -25 c-4 -27 -28 -36 -28 -10
0 20 8 32 22 32 5 0 8 -10 6 -22z m32 -42 c0 -16 -18 -31 -27 -22 -8 8 5 36
17 36 5 0 10 -6 10 -14z m-30 -116 c0 -10 -5 -22 -10 -25 -13 -8 -24 20 -16
41 8 20 26 9 26 -16z m14 -156 c4 -9 4 -19 2 -21 -8 -8 -26 8 -26 23 0 19 16
18 24 -2z m50 -110 c3 -9 3 -20 0 -25 -8 -13 -34 9 -34 27 0 19 26 18 34 -2z
m56 -123 c13 -26 13 -31 -5 -31 -12 0 -35 28 -35 44 0 14 30 4 40 -13z m20
-88 c0 -20 -24 -11 -28 10 -2 12 1 15 12 11 9 -3 16 -13 16 -21z m80 -24 c7
-11 9 -23 6 -26 -9 -9 -34 5 -46 26 -9 18 -8 21 9 21 11 0 25 -9 31 -21z m108
-27 c3 -9 -2 -13 -14 -10 -9 1 -19 9 -22 16 -3 9 2 13 14 10 9 -1 19 -9 22
-16z m43 -38 c38 -19 33 -39 -11 -39 -39 0 -65 29 -40 45 19 12 16 13 51 -6z
m87 4 c-3 -7 -11 -13 -18 -13 -7 0 -15 6 -17 13 -3 7 4 12 17 12 13 0 20 -5
18 -12z m169 -12 c-5 -14 -33 -20 -55 -11 -16 6 -16 7 1 20 20 15 60 8 54 -9z
m-358 -20 c9 -10 9 -16 1 -21 -12 -7 -40 11 -40 26 0 14 26 10 39 -5z m287 -1
c19 -15 19 -15 0 -30 -26 -20 -70 -19 -87 1 -11 14 -10 18 6 30 25 18 56 18
81 -1z m-111 -66 c-9 -14 -41 -11 -54 5 -10 11 -8 15 6 18 23 6 55 -10 48 -23z
m172 2 c0 -21 -16 -31 -48 -31 -36 0 -57 25 -32 39 27 16 80 10 80 -8z m-114
-46 c-4 -15 -36 -12 -41 3 -3 9 3 13 19 10 13 -1 23 -7 22 -13z"/>
<path d="M3234 3412 c-8 -5 -13 -163 -18 -517 -4 -280 -11 -663 -16 -850 -16
-560 -19 -731 -15 -710 7 30 33 777 45 1230 19 796 21 855 18 855 -2 0 -8 -4
-14 -8z"/>
<path d="M3118 3387 l-38 -11 0 -315 c0 -340 15 -1255 26 -1567 6 -175 8 -191
23 -187 16 4 18 32 24 316 13 617 20 1777 11 1776 -5 -1 -26 -6 -46 -12z"/>
<path d="M3024 3058 c11 -487 27 -1011 41 -1328 l14 -295 -5 270 c-3 149 -9
443 -14 655 -5 212 -10 516 -10 677 0 223 -3 293 -12 296 -10 4 -10 6 0 6 18
1 15 21 -4 21 -15 0 -16 -27 -10 -302z"/>
<path d="M2521 3152 c-37 -73 -54 -159 -48 -246 7 -107 54 -202 135 -277 59
-54 161 -120 133 -86 -7 9 -19 17 -27 17 -7 0 -21 14 -31 30 -11 19 -25 30
-40 30 -12 0 -25 5 -28 10 -3 6 1 10 10 10 13 0 14 4 5 20 -6 11 -15 18 -20
15 -6 -3 -7 0 -4 8 4 10 -5 16 -29 21 -19 4 -38 13 -41 22 -4 12 -2 12 14 4
10 -5 25 -10 34 -10 13 0 13 5 -1 39 -11 28 -23 41 -42 45 -31 7 -58 23 -50
30 3 3 19 0 37 -6 39 -15 43 -11 36 33 -4 25 -15 40 -37 54 -18 10 -34 18 -37
17 -3 0 -6 8 -7 19 -2 18 -1 18 27 -2 16 -13 33 -18 41 -14 8 5 10 4 5 -3 -4
-7 -3 -12 1 -12 5 0 14 18 19 40 11 38 10 40 -28 70 -21 17 -38 38 -38 47 0
13 7 10 29 -11 18 -17 34 -25 42 -21 8 5 10 4 5 -3 -4 -7 -3 -12 3 -12 15 0
33 38 25 52 -4 7 -3 8 4 4 20 -12 13 6 -11 28 -12 11 -32 34 -43 50 l-22 30
-21 -42z m-6 -112 c3 -6 -1 -7 -9 -4 -18 7 -21 14 -7 14 6 0 13 -4 16 -10z"/>
<path d="M3266 2375 c-3 -9 -6 -35 -6 -58 0 -33 5 -44 21 -52 27 -12 22 -30
-8 -30 -19 1 -23 -5 -23 -30 l0 -31 90 4 c104 5 231 -11 307 -40 33 -12 76
-41 112 -74 32 -29 62 -50 66 -46 5 4 5 2 2 -4 -4 -7 5 -38 20 -70 23 -50 28
-72 28 -144 0 -74 -4 -93 -30 -145 -16 -33 -31 -64 -33 -69 -3 -5 1 -5 8 -1 9
6 9 3 1 -13 -6 -12 -17 -24 -24 -28 -9 -5 -9 -4 1 7 6 7 12 18 12 23 0 6 -22
-12 -49 -38 -28 -27 -49 -54 -48 -60 1 -6 -3 -10 -10 -9 -7 2 -45 -15 -85 -36
-40 -22 -100 -47 -133 -56 -33 -9 -105 -29 -160 -45 -55 -16 -142 -40 -194
-54 -111 -31 -193 -65 -185 -77 3 -5 -1 -6 -9 -4 -29 12 -194 -105 -181 -127
4 -6 2 -8 -3 -5 -16 10 -72 -59 -101 -122 -18 -39 -27 -79 -30 -134 -5 -80 12
-192 28 -182 4 3 6 -3 4 -13 -12 -43 146 -226 177 -206 8 4 9 3 5 -4 -4 -7 10
-20 36 -33 l43 -22 -49 44 c-28 24 -54 43 -59 41 -5 -1 -6 2 -2 8 6 10 -35 73
-62 95 -18 15 -60 104 -74 158 -11 45 -8 117 7 177 5 20 4 22 -6 10 -10 -13
-11 -13 -7 0 2 8 9 15 15 15 6 0 24 21 40 46 17 25 44 56 61 68 17 12 29 26
27 30 -3 4 3 7 12 8 9 1 47 12 83 26 77 30 168 43 369 56 166 10 273 40 414
114 128 67 296 247 270 289 -4 7 -3 8 4 4 19 -12 52 117 52 203 -1 278 -216
515 -561 615 -126 36 -175 42 -183 21z m52 -32 c2 -8 -5 -13 -17 -13 -21 0
-35 13 -24 24 10 10 36 3 41 -11z m73 -44 c17 -17 19 -23 8 -30 -23 -15 -55
-10 -74 11 -17 19 -17 20 6 29 34 14 37 13 60 -10z m157 -47 c3 -10 -4 -13
-24 -10 -15 2 -29 9 -32 16 -3 10 4 13 24 10 15 -2 29 -9 32 -16z m-68 -21 c7
-14 7 -22 -2 -27 -6 -4 -8 -3 -4 4 3 6 -3 12 -16 14 -28 4 -36 28 -9 28 11 0
25 -9 31 -19z m207 -26 c3 -19 -1 -25 -15 -25 -18 0 -42 18 -42 32 0 4 12 8
26 8 17 0 23 4 18 13 -4 6 -3 8 1 4 5 -4 11 -19 12 -32z m87 -51 c9 -3 16 -13
16 -21 0 -20 -34 -12 -38 10 -4 19 -1 20 22 11z m47 -21 c13 -16 12 -17 -3 -4
-17 13 -22 21 -14 21 2 0 10 -8 17 -17z m119 -209 c0 -17 -22 -14 -28 4 -2 7
3 12 12 12 9 0 16 -7 16 -16z m27 -138 c-4 -9 -11 -16 -17 -16 -11 0 -14 33
-3 44 11 10 26 -11 20 -28z m-17 -116 c0 -27 -27 -33 -32 -6 -3 16 1 22 14 23
11 1 18 -5 18 -17z m-50 -55 c0 -8 -7 -15 -15 -15 -9 0 -12 6 -9 15 4 8 10 15
15 15 5 0 9 -7 9 -15z m20 -41 c0 -13 -21 -44 -30 -44 -11 0 -14 33 -3 43 8 8
33 9 33 1z m-80 -49 c0 -8 -7 -15 -15 -15 -9 0 -12 6 -9 15 4 8 10 15 15 15 5
0 9 -7 9 -15z m50 -54 c0 -12 -20 -25 -27 -18 -7 7 6 27 18 27 5 0 9 -4 9 -9z
m-40 -6 c0 -16 -26 -55 -37 -55 -22 0 -27 4 -28 27 0 12 2 20 5 18 3 -2 12 0
20 6 16 9 40 12 40 4z m-92 -43 c-4 -23 -34 -27 -40 -5 -4 13 1 18 19 19 17 2
23 -3 21 -14z m-68 -11 c0 -12 -20 -25 -27 -18 -7 7 6 27 18 27 5 0 9 -4 9 -9z
m60 -50 c0 -27 -27 -51 -56 -51 -13 0 -24 3 -24 6 0 16 24 46 43 54 33 13 37
12 37 -9z m60 8 c0 -5 5 -7 10 -4 18 11 11 -1 -12 -21 -12 -10 -18 -13 -14 -6
4 7 1 12 -8 12 -17 0 -21 12 -9 23 10 11 33 8 33 -4z m-130 -5 c0 -20 -24 -44
-44 -44 -19 0 -24 5 -22 23 1 17 8 23 33 24 18 2 33 0 33 -3z m-92 -26 c-5
-15 -48 -24 -48 -10 0 14 12 22 33 22 10 0 17 -5 15 -12z m62 -47 c-19 -36
-41 -51 -76 -51 -19 0 -34 4 -34 8 0 19 47 51 80 55 19 2 36 5 38 5 1 1 -2 -7
-8 -17z m-195 -1 c-3 -5 -13 -10 -21 -10 -8 0 -14 5 -14 10 0 6 9 10 21 10 11
0 17 -4 14 -10z m95 2 c0 -17 -25 -32 -54 -32 -28 0 -29 0 -11 20 18 19 65 28
65 12z m160 -1 c0 -12 -21 -27 -48 -34 -20 -5 -22 -3 -10 11 24 31 58 44 58
23z m-437 -41 c-3 -12 -12 -20 -21 -18 -25 5 -25 26 0 31 13 2 24 5 25 6 0 0
-1 -8 -4 -19z m137 1 c0 -12 -29 -23 -41 -15 -18 10 -9 24 16 24 14 0 25 -4
25 -9z m95 -11 c4 -6 1 -17 -5 -25 -15 -18 -80 -20 -80 -4 0 29 71 52 85 29z
m-305 -20 c12 -8 13 -11 1 -19 -15 -10 -51 -3 -51 9 0 7 16 17 30 19 3 0 12
-4 20 -9z m370 0 c0 -13 -38 -32 -51 -25 -14 10 9 35 32 35 11 0 19 -4 19 -10z
m-207 -7 c10 -9 -13 -33 -32 -33 -24 0 -44 16 -37 29 8 12 58 15 69 4z m-285
-15 c-7 -20 -48 -23 -48 -4 0 11 9 16 26 16 16 0 24 -5 22 -12z m67 -9 c10
-15 -1 -23 -20 -15 -9 3 -13 10 -10 16 8 13 22 13 30 -1z m136 -14 c-1 -15
-24 -12 -29 3 -3 9 2 13 12 10 10 -1 17 -7 17 -13z m133 6 c7 -11 -22 -23 -35
-15 -5 3 -7 10 -4 15 8 12 32 12 39 0z m-464 -11 c0 -5 -9 -10 -20 -10 -11 0
-20 5 -20 10 0 6 9 10 20 10 11 0 20 -4 20 -10z m-120 -59 c0 -5 -14 -17 -32
-25 l-32 -16 24 25 c24 26 40 32 40 16z"/>
<path d="M3247 2136 c-10 -26 -8 -66 3 -66 6 0 10 16 10 35 0 19 5 35 10 35 6
0 10 -15 10 -34 0 -30 3 -34 33 -39 36 -5 47 5 47 46 0 15 5 27 11 27 8 0 10
-14 6 -45 -6 -43 -5 -45 18 -45 39 0 40 0 39 15 -1 8 2 12 7 9 5 -3 12 8 15
25 4 17 10 31 15 31 13 0 11 -26 -5 -64 -14 -33 -13 -34 10 -40 34 -9 61 8 75
49 7 19 17 35 22 35 13 0 -1 -49 -23 -80 -19 -27 -19 -27 3 -37 25 -12 72 1
62 17 -3 5 0 7 7 5 8 -3 21 8 31 25 10 16 23 30 29 30 5 0 -2 -20 -16 -44 -14
-24 -22 -47 -18 -52 4 -5 3 -6 -2 -2 -5 4 -15 3 -22 -3 -11 -9 -9 -15 10 -30
19 -15 30 -17 50 -9 14 5 24 15 22 22 -1 7 -1 10 1 6 9 -16 25 -7 19 9 -4 10
-4 14 0 10 4 -4 16 0 26 10 13 11 18 12 18 3 0 -7 -19 -32 -43 -55 l-43 -43
21 -26 c27 -33 37 -33 80 5 38 34 47 27 15 -13 -10 -14 -16 -28 -12 -32 3 -4
-1 -4 -9 -1 -25 9 -37 -15 -27 -52 10 -38 25 -41 62 -12 14 11 26 16 26 10 0
-9 -23 -30 -63 -56 -8 -5 -17 -27 -20 -48 -6 -37 -5 -39 18 -33 14 4 25 2 25
-4 0 -5 -7 -10 -16 -10 -8 0 -13 -4 -10 -9 4 -5 -3 -7 -13 -4 -14 4 -24 -3
-35 -26 -19 -36 -20 -45 -4 -35 7 4 8 3 4 -4 -4 -7 -12 -12 -17 -12 -6 0 -31
-17 -57 -39 -26 -21 -62 -46 -79 -55 -18 -9 -33 -19 -33 -22 0 -3 32 12 70 32
180 94 271 264 230 432 -14 61 -65 146 -82 136 -6 -4 -8 -3 -4 4 8 13 -65 74
-82 67 -7 -3 -10 -1 -7 5 3 5 -25 19 -62 31 -51 16 -104 22 -209 26 -127 5
-142 4 -147 -11z m293 -66 c-6 -11 -13 -20 -16 -20 -2 0 0 9 6 20 6 11 13 20
16 20 2 0 0 -9 -6 -20z m260 -164 c0 -2 -8 -10 -17 -17 -16 -13 -17 -12 -4 4
13 16 21 21 21 13z"/>
<path d="M2788 2133 c7 -3 16 -2 19 1 4 3 -2 6 -13 5 -11 0 -14 -3 -6 -6z"/>
<path d="M2821 2126 c10 -9 79 -24 74 -15 -4 5 0 9 9 9 8 0 16 -5 18 -10 2 -6
20 -13 41 -17 33 -5 37 -4 31 12 -5 13 -4 16 4 11 7 -4 12 -2 12 3 0 7 -35 11
-97 11 -53 0 -94 -2 -92 -4z"/>
<path d="M3083 1365 c0 -38 2 -53 4 -32 2 20 2 52 0 70 -2 17 -4 1 -4 -38z"/>
<path d="M3098 1093 c6 -2 18 -2 25 0 6 3 1 5 -13 5 -14 0 -19 -2 -12 -5z"/>
<path d="M2957 1069 c-90 -25 -140 -52 -185 -97 -79 -79 -108 -193 -77 -298
12 -36 20 -52 23 -40 2 10 -1 23 -6 28 -6 6 -8 25 -5 43 3 19 0 35 -6 39 -16
11 -13 26 4 20 11 -5 15 1 15 19 0 14 -4 29 -10 32 -5 3 -10 11 -10 17 0 7 5
6 15 -2 12 -10 16 -7 25 16 8 20 8 30 1 32 -6 2 -11 11 -11 19 0 13 2 13 16 2
14 -11 18 -10 30 5 9 13 10 24 3 37 -10 20 4 28 16 9 12 -19 36 10 29 34 -5
17 -4 19 6 9 18 -16 50 2 50 27 0 21 16 28 22 9 5 -14 38 0 38 16 0 7 10 13
23 13 12 0 45 7 72 15 41 13 45 15 20 15 -16 0 -61 -8 -98 -19z"/>
<path d="M3121 963 c1 -60 5 -151 9 -203 6 -81 7 -66 8 108 1 129 -2 202 -8
202 -6 0 -10 -42 -9 -107z"/>
<path d="M3092 1040 c0 -14 2 -19 5 -12 2 6 2 18 0 25 -3 6 -5 1 -5 -13z"/>
<path d="M3163 950 c0 -30 2 -43 4 -27 2 15 2 39 0 55 -2 15 -4 2 -4 -28z"/>
<path d="M3131 444 c0 -11 3 -14 6 -6 3 7 2 16 -1 19 -3 4 -6 -2 -5 -13z"/>
</g>
</svg>
